<?xml version="1.0" encoding="UTF-8"?>
<!DOCTYPE svg PUBLIC "-//W3C//DTD SVG 1.1//EN" "http://www.w3.org/Graphics/SVG/1.1/DTD/svg11.dtd">
<svg xmlns="http://www.w3.org/2000/svg" version="1.1" width="512px" height="512px" style="shape-rendering:geometricPrecision; text-rendering:geometricPrecision; image-rendering:optimizeQuality; fill-rule:evenodd; clip-rule:evenodd" xmlns:xlink="http://www.w3.org/1999/xlink">
<g><path style="opacity:0.5" fill="#1fc10d" d="M 292.5,137.5 C 303.552,136.857 314.219,137.524 324.5,139.5C 313.735,138.855 303.068,138.188 292.5,137.5 Z"/></g>
<g><path style="opacity:0.995" fill="#1fc10d" d="M 292.5,137.5 C 303.068,138.188 313.735,138.855 324.5,139.5C 319.602,152.694 314.602,165.86 309.5,179C 356.014,201.756 402.68,224.256 449.5,246.5C 450.82,257.728 450.82,268.895 449.5,280C 412.708,297.731 375.708,314.898 338.5,331.5C 338.168,321.478 338.501,311.478 339.5,301.5C 368.041,288.376 396.708,275.542 425.5,263C 420.363,261.732 415.363,260.066 410.5,258C 373.712,240.773 337.045,223.273 300.5,205.5C 279.344,261.644 258.011,317.644 236.5,373.5C 225.96,373.158 215.626,372.158 205.5,370.5C 208.337,361.491 211.67,352.658 215.5,344C 170.209,322.404 124.876,300.904 79.5,279.5C 78.1667,268.5 78.1667,257.5 79.5,246.5C 116.167,229.167 152.833,211.833 189.5,194.5C 190.818,204.728 190.818,214.894 189.5,225C 161.294,238.771 132.627,251.438 103.5,263C 108.243,264.47 112.909,266.136 117.5,268C 152.956,285.136 188.623,301.469 224.5,317C 246.796,256.928 269.463,197.095 292.5,137.5 Z"/></g>
<g><path style="opacity:0.491" fill="#1fc00d" d="M 205.5,370.5 C 215.626,372.158 225.96,373.158 236.5,373.5C 225.833,373.5 215.167,373.5 204.5,373.5C 204.263,372.209 204.596,371.209 205.5,370.5 Z"/></g>
</svg>
